{"title":"Lumekuninganna ja Igavene Talv (Frozen) eesti keeles","uid":9868013,"size":1176710318,"categoryP":"video","categoryS":"movies","magnet":"?xt=urn:btih:655fe4cee498214026695ca0389c5a14aec6402c&amp;dn=Lumekuninganna+ja+Igavene+Talv+%28Frozen%29+eesti+keeles&amp;tr=udp%3A%2F%2Ftracker.openbittorrent.com%3A80&amp;tr=udp%3A%2F%2Fopen.demonii.com%3A1337&amp;tr=udp%3A%2F%2Ftracker.coppersurfer.tk%3A6969&amp;tr=udp%3A%2F%2Fexodus.desync.com%3A6969","seeders":18,"leechers":0,"uploader":"Jann1","files":-1,"time":1396383965,"description":"Video\nID                                       : 0\nFormat                                   : MPEG-4 Visual\nFormat profile                           : Advanced Simple@L5\nFormat settings, BVOP                    : 2\nFormat settings, QPel                    : No\nFormat settings, GMC                     : No warppoints\nFormat settings, Matrix                  : Default (H.263)\nCodec ID                                 : XVID\nCodec ID/Hint                            : XviD\nDuration                                 : 1h 38mn\nBit rate                                 : 1 207 Kbps\nWidth                                    : 720 pixels\nHeight                                   : 320 pixels\nDisplay aspect ratio                     : 2.25:1\nFrame rate                               : 25.000 fps\nColor space                              : YUV\nChroma subsampling                       : 4:2:0\nBit depth                                : 8 bits\nScan type                                : Progressive\nCompression mode                         : Lossy\nBits/(Pixel*Frame)                       : 0.210\nStream size                              : 846 MiB (75%)\nWriting library                          : XviD 73\n\nAudio\nID                                       : 1\nFormat                                   : AC-3\nFormat/Info                              : Audio Coding 3\nMode extension                           : CM (complete main)\nFormat settings, Endianness              : Big\nCodec ID                                 : 2000\nDuration                                 : 1h 38mn\nBit rate mode                            : Constant\nBit rate                                 : 384 Kbps\nChannel(s)                               : 6 channels\nChannel positions                        : Front: L C R, Side: L R, LFE\nSampling rate                            : 48.0 KHz\nBit depth                                : 16 bits\nCompression mode                         : Lossy\nStream size                              : 269 MiB (24%)\nAlignment                                : Split accross interleaves\nInterleave, duration                     : 40 ms (1.00 video frame)\nInterleave, preload duration             : 500 ms\nLanguage                                 : estonian only\n","torrent":{"xt":"urn:btih:655fe4cee498214026695ca0389c5a14aec6402c","amp;dn":"Lumekuninganna+ja+Igavene+Talv+%28Frozen%29+eesti+keeles","amp;tr":["udp%3A%2F%2Ftracker.openbittorrent.com%3A80","udp%3A%2F%2Fopen.demonii.com%3A1337","udp%3A%2F%2Ftracker.coppersurfer.tk%3A6969","udp%3A%2F%2Fexodus.desync.com%3A6969"],"infoHash":"655fe4cee498214026695ca0389c5a14aec6402c","infoHashBuffer":{"type":"Buffer","data":[101,95,228,206,228,152,33,64,38,105,92,160,56,156,90,20,174,198,64,44]},"announce":[],"urlList":[]}}